<svg width="30" height="30" viewBox="0 0 30 30" fill="none" xmlns="http://www.w3.org/2000/svg">
<symbol
id= "menu"
>
<rect width="30" height="30" fill="#F5F5F5"/>
<g clip-path="url(#clip0_0_1)">
<path opacity="0.992" fill-rule="evenodd" clip-rule="evenodd" d="M9.93164 0.08789C6.83596 0.804849 3.73051 1.50797 0.615234 2.19726C1.4334 0.961183 2.58574 0.267825 4.07227 0.117187C6.02531 0.0878912 7.97842 0.0781254 9.93164 0.08789Z" fill="#A96F44"/>
<path opacity="0.987" fill-rule="evenodd" clip-rule="evenodd" d="M9.93164 0.0878906C11.7285 0.0878906 13.5254 0.0878906 15.3223 0.0878906C15.6437 0.136357 15.9757 0.165654 16.3184 0.175781C10.8887 1.38084 5.45898 2.58202 0.0292969 3.7793C0.110483 3.2073 0.305795 2.67996 0.615234 2.19727C3.73051 1.50797 6.83596 0.80485 9.93164 0.0878906Z" fill="#AB7348"/>
<path opacity="0.981" fill-rule="evenodd" clip-rule="evenodd" d="M15.3223 0.0878906C17.3145 0.0878906 19.3066 0.0878906 21.2988 0.0878906C20.5472 0.13658 19.7855 0.165877 19.0137 0.175781C12.6616 1.58319 6.314 2.9992 -0.0292969 4.42383C-0.0292969 4.22852 -0.0292969 4.0332 -0.0292969 3.83789C0.00976564 3.83789 0.0292969 3.81836 0.0292969 3.7793C5.45898 2.58202 10.8887 1.38084 16.3184 0.175781C15.9757 0.165654 15.6437 0.136357 15.3223 0.0878906Z" fill="#AD774B"/>
<path opacity="0.995" fill-rule="evenodd" clip-rule="evenodd" d="M21.2988 0.0878906C22.7051 0.0878906 24.1113 0.0878906 25.5176 0.0878906C17.0134 2.02325 8.49779 3.93732 -0.0292969 5.83008C-0.0292969 5.36133 -0.0292969 4.89258 -0.0292969 4.42383C6.314 2.9992 12.6616 1.58319 19.0137 0.175781C19.7855 0.165877 20.5472 0.13658 21.2988 0.0878906Z" fill="#B07B4F"/>
<path opacity="0.996" fill-rule="evenodd" clip-rule="evenodd" d="M25.5176 0.0878906C26.4596 0.115519 27.319 0.388956 28.0957 0.908203C28.0907 0.966557 28.1102 1.01538 28.1543 1.05469C22.9573 2.19955 17.762 3.3519 12.5684 4.51172C12.0697 4.52171 11.5815 4.55101 11.1035 4.59961C9.61717 4.5743 8.13275 4.60359 6.65039 4.6875C5.85331 4.92821 5.28691 5.42626 4.95117 6.18164C3.29754 6.57492 1.63738 6.946 -0.0292969 7.29492C-0.0292969 6.80666 -0.0292969 6.31834 -0.0292969 5.83008C8.49779 3.93732 17.0134 2.02325 25.5176 0.0878906Z" fill="#B38054"/>
<path opacity="0.996" fill-rule="evenodd" clip-rule="evenodd" d="M28.0957 0.908203C28.6525 1.28893 29.0822 1.77721 29.3848 2.37305C26.0317 3.08649 22.6918 3.82868 19.3652 4.59961C16.6113 4.59961 13.8574 4.59961 11.1035 4.59961C11.5815 4.55101 12.0697 4.52171 12.5684 4.51172C17.762 3.3519 22.9573 2.19955 28.1543 1.05469C28.1102 1.01538 28.0907 0.966557 28.0957 0.908203Z" fill="#B68659"/>
<path opacity="0.994" fill-rule="evenodd" clip-rule="evenodd" d="M29.3848 2.37305C29.6323 2.74388 29.7885 3.15403 29.8535 3.60352C27.8728 4.02548 25.9002 4.4747 23.9355 4.95117C23.6084 4.7716 23.2568 4.66417 22.8809 4.62891C21.7092 4.59961 20.5373 4.58985 19.3652 4.59961C22.6918 3.82868 26.0317 3.08649 29.3848 2.37305Z" fill="#B98C5E"/>
<path opacity="0.992" fill-rule="evenodd" clip-rule="evenodd" d="M29.8535 3.60352C29.8926 3.7207 29.9316 3.83789 29.9707 3.95508C29.9707 4.42383 29.9707 4.89258 29.9707 5.36133C28.3338 5.73149 26.6932 6.08303 25.0488 6.41602C24.8334 5.80927 24.4623 5.32099 23.9355 4.95117C25.9002 4.4747 27.8728 4.02548 29.8535 3.60352Z" fill="#BD9264"/>
<path opacity="0.994" fill-rule="evenodd" clip-rule="evenodd" d="M23.877 5.71289C24.1564 5.93924 24.3322 6.23221 24.4043 6.5918C21.2688 7.27816 18.1438 7.98129 15.0293 8.70117C13.4668 8.70117 11.9043 8.70117 10.3418 8.70117C14.8388 7.66881 19.3505 6.67271 23.877 5.71289Z" fill="#BE9365"/>
<path opacity="0.994" fill-rule="evenodd" clip-rule="evenodd" d="M29.9707 5.36133C29.9707 5.96678 29.9707 6.57229 29.9707 7.17773C28.2185 7.58643 26.4607 7.97707 24.6973 8.34961C25.0406 7.74639 25.1578 7.10186 25.0488 6.41602C26.6932 6.08303 28.3338 5.73149 29.9707 5.36133Z" fill="#C1996A"/>
<path opacity="0.997" fill-rule="evenodd" clip-rule="evenodd" d="M4.95117 6.18164C4.79809 6.70951 4.79809 7.23686 4.95117 7.76367C3.29269 8.14225 1.63253 8.51332 -0.0292969 8.87695C-0.0292969 8.34961 -0.0292969 7.82227 -0.0292969 7.29492C1.63738 6.946 3.29754 6.57492 4.95117 6.18164Z" fill="#B68659"/>
<path opacity="0.991" fill-rule="evenodd" clip-rule="evenodd" d="M24.4043 6.5918C24.5477 7.6432 24.1181 8.33654 23.1152 8.67188C20.42 8.70117 17.7247 8.71096 15.0293 8.70117C18.1438 7.98129 21.2688 7.27816 24.4043 6.5918Z" fill="#C09769"/>
<path opacity="0.995" fill-rule="evenodd" clip-rule="evenodd" d="M29.9707 7.17773C29.9707 7.70508 29.9707 8.23242 29.9707 8.75977C24.2902 10.0285 18.6066 11.2883 12.9199 12.5391C11.8161 12.5489 10.7224 12.5782 9.63867 12.627C9.19758 12.6152 8.78742 12.7226 8.4082 12.9492C8.10375 13.1854 7.83029 13.4491 7.58789 13.7402C5.04322 14.2886 2.50416 14.855 -0.0292969 15.4395C-0.0292969 14.9121 -0.0292969 14.3848 -0.0292969 13.8574C6.58986 12.3793 13.211 10.9046 19.834 9.43359C20.3326 9.42357 20.8209 9.39428 21.2988 9.3457C22.0056 9.37002 22.7087 9.34072 23.4082 9.25781C23.9299 9.07682 24.3595 8.77406 24.6973 8.34961C26.4607 7.97707 28.2185 7.58643 29.9707 7.17773Z" fill="#C59F70"/>
<path opacity="0.997" fill-rule="evenodd" clip-rule="evenodd" d="M4.95117 7.76367C5.13432 8.20078 5.40776 8.57191 5.77148 8.87695C3.85621 9.37031 1.92262 9.81949 -0.0292969 10.2246C-0.0292969 9.77537 -0.0292969 9.32619 -0.0292969 8.87695C1.63253 8.51332 3.29269 8.14225 4.95117 7.76367Z" fill="#BA8C5E"/>
<path opacity="0.999" fill-rule="evenodd" clip-rule="evenodd" d="M29.9707 8.75977C29.9707 9.28711 29.9707 9.81445 29.9707 10.3418C26.6504 11.0704 23.3301 11.8028 20.0098 12.5391C20.12 12.5507 20.2177 12.58 20.3027 12.627C16.748 12.627 13.1934 12.627 9.63867 12.627C10.7224 12.5782 11.8161 12.5489 12.9199 12.5391C18.6066 11.2883 24.2902 10.0285 29.9707 8.75977Z" fill="#C8A575"/>
<path opacity="0.989" fill-rule="evenodd" clip-rule="evenodd" d="M5.77148 8.87695C6.07324 9.08631 6.40529 9.23279 6.76758 9.31641C7.68533 9.3457 8.60332 9.35549 9.52148 9.3457C10.2144 9.39439 10.9175 9.42369 11.6309 9.43359C7.74879 10.3096 3.86207 11.1592 -0.0292969 11.9824C-0.0292969 11.3965 -0.0292969 10.8105 -0.0292969 10.2246C1.92262 9.81949 3.85621 9.37031 5.77148 8.87695Z" fill="#BD9264"/>
<path opacity="0.984" fill-rule="evenodd" clip-rule="evenodd" d="M9.52148 9.3457C12.1973 9.3457 14.873 9.3457 17.5488 9.3457C17.0318 9.39434 16.5045 9.42363 15.9668 9.43359C10.636 10.6247 5.30398 11.8063 -0.0292969 12.9785C-0.0292969 12.6465 -0.0292969 12.3145 -0.0292969 11.9824C3.86207 11.1592 7.74879 10.3096 11.6309 9.43359C10.9175 9.42369 10.2144 9.39439 9.52148 9.3457Z" fill="#C09768"/>
<path opacity="0.989" fill-rule="evenodd" clip-rule="evenodd" d="M17.5488 9.3457C18.7988 9.3457 20.0488 9.3457 21.2988 9.3457C20.8209 9.39428 20.3326 9.42357 19.834 9.43359C13.211 10.9046 6.58986 12.3793 -0.0292969 13.8574C-0.0292969 13.5645 -0.0292969 13.2715 -0.0292969 12.9785C5.30398 11.8063 10.636 10.6247 15.9668 9.43359C16.5045 9.42363 17.0318 9.39434 17.5488 9.3457Z" fill="#C29A6C"/>
<path opacity="0.995" fill-rule="evenodd" clip-rule="evenodd" d="M29.9707 10.3418C29.9707 11.084 29.9707 11.8262 29.9707 12.5684C29.9317 12.4202 29.8927 12.264 29.8535 12.0996C27.4539 12.6458 25.0515 13.1829 22.6465 13.7109C22.533 13.7181 22.4549 13.7669 22.4121 13.8574C21.9415 13.0559 21.2384 12.6458 20.3027 12.627C20.2177 12.58 20.12 12.5507 20.0098 12.5391C23.3301 11.8028 26.6504 11.0704 29.9707 10.3418Z" fill="#CCAB7B"/>
<path opacity="0.996" fill-rule="evenodd" clip-rule="evenodd" d="M29.9707 12.5684C29.9707 12.8808 29.9707 13.1934 29.9707 13.5059C27.5342 14.0556 25.0928 14.583 22.6465 15.0879C22.6705 14.6569 22.5923 14.2467 22.4121 13.8574C22.4549 13.7669 22.533 13.7181 22.6465 13.7109C25.0515 13.1829 27.4539 12.6458 29.8535 12.0996C29.8927 12.264 29.9317 12.4202 29.9707 12.5684Z" fill="#D0B181"/>
<path opacity="0.996" fill-rule="evenodd" clip-rule="evenodd" d="M20.625 18.3348C16.554 19.0673 12.4914 19.8112 8.4375 20.5664C7.47732 20.4372 6.96955 19.9782 6.91406 19.1895C6.93539 18.4836 7.36506 18.0325 8.20312 17.8363C12.0312 17.8046 15.8594 17.8046 19.6875 17.8363C20.0713 17.9184 20.3838 18.0846 20.625 18.3348Z" fill="#CBAA7A"/>
<path opacity="0.995" fill-rule="evenodd" clip-rule="evenodd" d="M29.9707 13.5059C29.9707 14.0137 29.9707 14.5215 29.9707 15.0293C29.915 15.1124 29.8955 15.2101 29.9121 15.3223C26.9226 15.9769 23.9343 16.6409 20.9473 17.3145C20.8936 17.3119 20.8545 17.2924 20.8301 17.2559C21.9243 16.9429 22.5297 16.2203 22.6465 15.0879C25.0928 14.583 27.5342 14.0556 29.9707 13.5059Z" fill="#D3B786"/>
<path opacity="0.998" fill-rule="evenodd" clip-rule="evenodd" d="M7.58789 13.7402C7.33061 14.2559 7.23293 14.8028 7.29492 15.3809C4.85517 15.9157 2.41376 16.443 -0.0292969 16.9629C-0.0292969 16.4551 -0.0292969 15.9473 -0.0292969 15.4395C2.50416 14.855 5.04322 14.2886 7.58789 13.7402Z" fill="#C8A575"/>
<path opacity="0.992" fill-rule="evenodd" clip-rule="evenodd" d="M29.9707 15.0293C29.9707 15.6738 29.9707 16.3184 29.9707 16.9629C29.917 16.9346 29.8584 16.9151 29.7949 16.9043C24.4833 18.0896 19.1708 19.2713 13.8574 20.4492C13.2836 20.5094 12.7171 20.5582 12.1582 20.5957C10.3613 20.5859 8.56436 20.5957 6.76758 20.625C5.78807 20.8526 5.16307 21.4484 4.89258 22.4121C3.25759 22.8013 1.61696 23.1724 -0.0292969 23.5254C-0.0292969 22.998 -0.0292969 22.4707 -0.0292969 21.9434C6.86584 20.4537 13.7408 18.9108 20.5957 17.3145C20.6812 17.3184 20.7593 17.2989 20.8301 17.2559C20.8545 17.2924 20.8936 17.3119 20.9473 17.3145C23.9343 16.6409 26.9226 15.9769 29.9121 15.3223C29.8955 15.2101 29.915 15.1124 29.9707 15.0293Z" fill="#D7BE8C"/>
<path opacity="0.998" fill-rule="evenodd" clip-rule="evenodd" d="M7.29492 15.3809C7.43865 15.9932 7.75113 16.501 8.23242 16.9043C5.48367 17.5322 2.72976 18.1376 -0.0292969 18.7207C-0.0292969 18.1348 -0.0292969 17.5488 -0.0292969 16.9629C2.41376 16.443 4.85517 15.9157 7.29492 15.3809Z" fill="#CCAB7B"/>
<path opacity="0.998" fill-rule="evenodd" clip-rule="evenodd" d="M8.23242 16.9043C8.52252 17.0784 8.83506 17.2054 9.16992 17.2852C12.9004 17.3145 16.6308 17.3242 20.3613 17.3145C18.0665 17.3633 15.7618 17.3926 13.4473 17.4023C8.95805 18.4075 4.46587 19.3938 -0.0292969 20.3613C-0.0292969 19.8145 -0.0292969 19.2676 -0.0292969 18.7207C2.72976 18.1376 5.48367 17.5322 8.23242 16.9043Z" fill="#D0B281"/>
<path fill-rule="evenodd" clip-rule="evenodd" d="M20.3613 17.3145C20.4394 17.3145 20.5176 17.3145 20.5957 17.3145C13.7408 18.9108 6.86584 20.4537 -0.0292969 21.9434C-0.0292969 21.416 -0.0292969 20.8887 -0.0292969 20.3613C4.46587 19.3938 8.95805 18.4075 13.4473 17.4023C15.7618 17.3926 18.0665 17.3633 20.3613 17.3145Z" fill="#D3B886"/>
<path opacity="0.982" fill-rule="evenodd" clip-rule="evenodd" d="M29.9707 16.9629C29.9707 17.5293 29.9707 18.0957 29.9707 18.6621C27.2187 19.2809 24.4648 19.8962 21.709 20.5078C20.4685 20.5177 19.238 20.547 18.0176 20.5957C16.0645 20.5957 14.1113 20.5957 12.1582 20.5957C12.7171 20.5582 13.2836 20.5094 13.8574 20.4492C19.1708 19.2713 24.4833 18.0896 29.7949 16.9043C29.8584 16.9151 29.917 16.9346 29.9707 16.9629Z" fill="#DBC492"/>
<path opacity="0.974" fill-rule="evenodd" clip-rule="evenodd" d="M29.9707 18.6621C29.9707 19.1699 29.9707 19.6777 29.9707 20.1855C28.1334 20.5686 26.2974 20.9593 24.4629 21.3574C24.1164 20.9788 23.6868 20.7346 23.1738 20.625C21.4552 20.5957 19.7364 20.5859 18.0176 20.5957C19.238 20.547 20.4685 20.5177 21.709 20.5078C24.4648 19.8962 27.2187 19.2809 29.9707 18.6621Z" fill="#DECA97"/>
<path opacity="0.993" fill-rule="evenodd" clip-rule="evenodd" d="M29.9707 20.1855C29.9707 20.7324 29.9707 21.2793 29.9707 21.8262C28.3513 22.2047 26.7302 22.5758 25.1074 22.9395C25.0685 22.335 24.8537 21.8077 24.4629 21.3574C26.2974 20.9593 28.1334 20.5686 29.9707 20.1855Z" fill="#E2D19D"/>
<path opacity="0.992" fill-rule="evenodd" clip-rule="evenodd" d="M18.252 21.2402C14.1879 22.1609 10.1157 23.0788 6.03515 23.9941C5.9748 24.0138 5.94551 24.0529 5.94726 24.1113C5.35761 23.3797 5.32831 22.618 5.85937 21.8262C6.12381 21.5425 6.44607 21.357 6.82617 21.2695C10.6347 21.2402 14.4433 21.2305 18.252 21.2402Z" fill="#DBC592"/>
<path opacity="0.996" fill-rule="evenodd" clip-rule="evenodd" d="M18.252 21.2402C19.8732 21.2305 21.4943 21.2402 23.1152 21.2695C23.5729 21.3666 23.9244 21.6107 24.1699 22.002C20.2001 22.843 16.2352 23.7122 12.2754 24.6094C11.5621 24.6193 10.859 24.6486 10.166 24.6973C9.13068 24.7071 8.09556 24.6973 7.06056 24.668C6.60652 24.6363 6.23538 24.4507 5.94728 24.1113C5.94552 24.0529 5.97482 24.0138 6.03517 23.9941C10.1157 23.0788 14.188 22.1609 18.252 21.2402Z" fill="#DFCC98"/>
<path opacity="0.997" fill-rule="evenodd" clip-rule="evenodd" d="M4.89258 22.4121C4.77442 23.0063 4.85254 23.5727 5.12695 24.1113C5.12047 24.1475 5.10094 24.1768 5.06836 24.1992C3.36478 24.5715 1.66556 24.9523 -0.0292969 25.3418C-0.0292969 24.7363 -0.0292969 24.1308 -0.0292969 23.5254C1.61696 23.1724 3.25759 22.8013 4.89258 22.4121Z" fill="#DBC592"/>
<path opacity="0.993" fill-rule="evenodd" clip-rule="evenodd" d="M29.9707 21.8262C29.9707 22.5879 29.9707 23.3496 29.9707 24.1113C21.4961 25.9996 13.0195 27.8844 4.54102 29.7656C4.88368 29.7758 5.21572 29.8051 5.53711 29.8535C4.57065 29.934 3.63315 29.8168 2.72461 29.502C8.87484 28.106 15.0272 26.7193 21.1816 25.3418C21.7484 25.3515 22.3148 25.3418 22.8809 25.3125C24.2364 25.0995 24.9786 24.3085 25.1074 22.9395C26.7302 22.5758 28.3513 22.2047 29.9707 21.8262Z" fill="#E8DAA6"/>
<path opacity="0.996" fill-rule="evenodd" clip-rule="evenodd" d="M29.9707 24.1113C29.9707 24.4043 29.9707 24.6973 29.9707 24.9902C22.8809 26.5586 15.791 28.1309 8.70117 29.707C8.1273 29.7672 7.56088 29.816 7.00195 29.8535C6.51369 29.8535 6.02537 29.8535 5.53711 29.8535C5.21572 29.8051 4.88368 29.7758 4.54102 29.7656C13.0195 27.8844 21.4961 25.9996 29.9707 24.1113Z" fill="#EADEA9"/>
<path opacity="0.993" fill-rule="evenodd" clip-rule="evenodd" d="M5.12695 24.1113C5.50552 24.7309 6.05238 25.1215 6.76758 25.2832C4.57318 25.7974 2.36615 26.2857 0.146484 26.748C0.0956338 26.5246 0.0370403 26.3097 -0.0292969 26.1035C-0.0292969 25.8496 -0.0292969 25.5957 -0.0292969 25.3418C1.66556 24.9523 3.36478 24.5715 5.06836 24.1992C5.10094 24.1768 5.12047 24.1475 5.12695 24.1113Z" fill="#DECB98"/>
<path opacity="0.985" fill-rule="evenodd" clip-rule="evenodd" d="M29.9707 24.9902C29.9707 25.2832 29.9707 25.5762 29.9707 25.8691C24.0691 27.1492 18.1706 28.448 12.2754 29.7656C12.6376 29.7757 12.9891 29.805 13.3301 29.8535C11.2207 29.8535 9.11133 29.8535 7.00195 29.8535C7.56088 29.816 8.1273 29.7672 8.70117 29.707C15.791 28.1309 22.8809 26.5586 29.9707 24.9902Z" fill="#ECE2AC"/>
<path opacity="0.995" fill-rule="evenodd" clip-rule="evenodd" d="M6.76758 25.2832C9.20783 25.3402 11.6493 25.3597 14.0918 25.3418C9.74613 26.3322 5.39064 27.3087 1.02539 28.2715C0.642885 27.8194 0.349915 27.3116 0.146484 26.748C2.36615 26.2857 4.57318 25.7974 6.76758 25.2832Z" fill="#E2D19E"/>
<path opacity="0.997" fill-rule="evenodd" clip-rule="evenodd" d="M14.0918 25.3418C16.4551 25.3418 18.8184 25.3418 21.1816 25.3418C15.0272 26.7193 8.87484 28.106 2.72461 29.502C2.044 29.2495 1.47759 28.8394 1.02539 28.2715C5.39064 27.3087 9.74613 26.3322 14.0918 25.3418Z" fill="#E6D7A3"/>
<path opacity="0.99" fill-rule="evenodd" clip-rule="evenodd" d="M29.9707 25.8691C29.9707 25.9082 29.9707 25.9472 29.9707 25.9863C29.9095 26.3091 29.8119 26.6215 29.6777 26.9238C25.3562 27.8412 21.0202 28.7885 16.6699 29.7656C16.9931 29.7758 17.3056 29.8051 17.6074 29.8535C16.1817 29.8535 14.7558 29.8535 13.3301 29.8535C12.9891 29.805 12.6376 29.7757 12.2754 29.7656C18.1706 28.448 24.0691 27.1492 29.9707 25.8691Z" fill="#EEE5B0"/>
<path opacity="0.986" fill-rule="evenodd" clip-rule="evenodd" d="M29.6777 26.9238C28.9957 28.6495 27.7262 29.6163 25.8691 29.8242C23.1153 29.8535 20.3614 29.8633 17.6074 29.8535C17.3056 29.8051 16.9931 29.7758 16.6699 29.7656C21.0202 28.7885 25.3562 27.8412 29.6777 26.9238Z" fill="#F0EAB4"/>
</g>
<defs>
<clipPath id="clip0_0_1">
<rect width="30" height="30" fill="white"/>
</clipPath>
</defs>
</svg>
