<svg width="256" height="256" viewBox="0 0 256 256" fill="none" xmlns="http://www.w3.org/2000/svg">
<rect width="256" height="256" fill="#F5F5F5"/>
<g clip-path="url(#clip0_0_1)">
<path d="M0 128V256H128H256V128V6.4671e-06H128H0V128ZM133.222 80.3584C133.261 80.5632 132.71 81.1776 131.021 82.9056C129.779 84.16 128.41 85.44 127.974 85.76C127.117 86.3872 125.824 87.168 125.645 87.168C125.491 87.168 125.696 86.9888 127.296 85.6448C128.998 84.224 131.11 82.1632 132.096 80.96C132.89 79.9872 133.146 79.8464 133.222 80.3584ZM118.106 81.1392C118.054 81.5488 116.71 85.5424 116.032 87.296C115.942 87.5392 115.469 88.7808 115.008 90.048C113.946 92.8896 113.549 93.6448 112.653 94.5792C111.821 95.4368 110.067 96.896 109.056 97.5744C108.672 97.8432 107.891 98.4576 107.341 98.9568C106.458 99.7248 104.998 100.736 104.742 100.736C104.691 100.736 104.806 100.57 104.998 100.378C105.19 100.173 105.306 99.9808 105.254 99.9296C105.216 99.8784 104.909 99.84 104.589 99.84C104.269 99.84 103.475 99.6992 102.848 99.52C102.208 99.3408 101.53 99.2 101.325 99.2C101.03 99.2 100.979 99.1616 101.094 99.0464C101.21 98.9312 101.619 98.9312 102.81 99.0464C104.73 99.2384 106.33 99.2384 106.432 99.072C106.522 98.9312 108.006 97.92 108.109 97.92C108.147 97.92 108.39 97.7152 108.646 97.472C108.902 97.216 109.645 96.6144 110.272 96.128C111.885 94.8992 112.038 94.7584 112.73 93.824C113.408 92.9024 114.138 91.4048 114.547 90.0992C114.893 89.0368 114.893 88.7808 114.586 88.9472C114.304 89.088 112.205 89.6512 111.168 89.8432C109.76 90.0992 108.403 90.24 107.354 90.2272C106.163 90.2144 106.291 90.1632 108.608 89.792C109.312 89.6896 110.784 89.3568 111.872 89.0752C112.96 88.7936 114.125 88.4864 114.458 88.4096C115.059 88.2688 115.059 88.2688 115.379 87.3728C115.942 85.7856 116.877 83.0208 117.018 82.56C117.453 81.024 118.272 79.9744 118.106 81.1392ZM123.661 82.1248C123.059 83.7632 121.856 86.3744 120.346 89.344C118.758 92.4672 118.272 93.888 118.029 96.0768C117.939 96.96 117.786 97.408 116.992 99.1488C115.802 101.76 115.84 101.683 115.686 101.53C115.61 101.453 115.622 101.146 115.763 100.646C115.955 99.8912 116.16 99.392 117.299 96.9984C117.773 96 117.888 95.616 117.888 95.0784C117.888 94.1056 118.106 92.8896 118.451 91.9168C119.347 89.4336 123.853 80.5504 124.006 80.9984C124.019 81.0624 123.866 81.5616 123.661 82.1248ZM136.627 83.0976C132.288 86.4896 129.766 88.7552 130.202 88.8832C130.291 88.9216 130.547 88.9728 130.752 89.024C131.315 89.152 132.57 89.7152 133.376 90.2144C134.118 90.688 135.04 91.5328 135.04 91.7632C135.04 91.9296 134.707 91.9552 134.605 91.8016C134.4 91.4688 130.829 89.6 130.022 89.408C129.51 89.28 129.382 89.6128 129.562 90.6624C129.715 91.6352 129.562 92.992 129.19 93.76C128.832 94.5024 128.794 94.272 129.05 93.0176C129.267 91.9808 129.28 91.6864 129.165 90.56C129.088 89.856 128.998 89.1392 128.947 88.96L128.883 88.64L129.062 88.9472L129.254 89.2544L129.51 88.6656C129.651 88.3456 130.022 87.808 130.33 87.4752C131.366 86.3488 133.978 84.3648 135.936 83.2384C136.755 82.7648 137.165 82.688 136.627 83.0976ZM124.224 87.2832C124.186 87.3472 123.712 87.552 123.162 87.7312C122.624 87.9232 122.099 88.1152 121.997 88.1792C121.882 88.256 121.805 88.6528 121.779 89.472C121.754 90.1248 121.702 90.688 121.664 90.7264C121.51 90.88 121.459 90.5856 121.434 89.5232C121.408 87.8976 121.562 87.6928 123.034 87.3728C124.019 87.1552 124.326 87.1296 124.224 87.2832ZM123.827 89.024C124.083 89.5488 124.083 89.9968 123.827 90.816C123.725 91.1616 123.635 91.8144 123.622 92.2624C123.622 93.12 123.443 93.2736 123.226 92.608C123.136 92.352 123.162 91.968 123.328 91.2768C123.546 90.3296 123.546 89.3824 123.328 88.7296C123.174 88.2688 123.584 88.512 123.827 89.024ZM123.098 89.7024C123.059 90.0608 122.944 90.3552 122.803 90.4576C122.355 90.7904 122.266 90.6368 122.573 90.0224C122.739 89.7024 122.88 89.3184 122.88 89.1904C122.88 89.0368 122.931 88.9856 123.021 89.0368C123.11 89.088 123.136 89.344 123.098 89.7024ZM126.976 90.0736C127.117 90.7136 127.104 90.944 126.861 91.9168C126.592 92.9792 126.272 93.824 126.118 93.824C126.054 93.824 126.131 93.1456 126.285 92.416C126.336 92.2112 126.17 92.3904 125.837 92.8896C125.376 93.5936 125.005 93.952 124.736 93.952C124.698 93.952 124.762 93.8368 124.89 93.7088C125.018 93.568 125.402 92.9024 125.734 92.224C126.182 91.328 126.374 90.7776 126.426 90.2656C126.541 88.96 126.733 88.8832 126.976 90.0736ZM124.928 91.2256C124.224 92.9664 124.122 93.184 124.006 93.184C123.802 93.184 123.904 92.6848 124.288 91.8784C124.493 91.4432 124.672 91.008 124.672 90.9184C124.672 90.8416 124.8 90.4448 124.966 90.0224L125.248 89.28L125.286 89.7536C125.312 90.0608 125.184 90.5728 124.928 91.2256ZM128.486 92.6976C128.448 94.0032 128.256 94.1568 128.256 92.8768V92.1088L127.757 92.8768C127.206 93.7088 126.643 94.2976 126.502 94.1696C126.464 94.1184 126.694 93.6832 127.027 93.2096C127.629 92.3392 128 91.3152 128 90.5344C128 90.3168 128.038 90.0224 128.09 89.9072C128.243 89.4848 128.512 91.3792 128.486 92.6976ZM142.438 92.2368C143.373 92.416 145.139 93.12 144.998 93.248C144.96 93.2864 144.397 93.1328 143.731 92.9152C142.605 92.5312 142.413 92.5056 140.608 92.4928C138.086 92.48 137.139 92.6848 134.541 93.7856C133.811 94.0928 133.197 94.3232 133.158 94.2848C133.12 94.2464 133.325 94.0672 133.606 93.8624C133.901 93.6704 134.157 93.4272 134.195 93.3376C134.298 93.1072 133.478 93.4784 132.826 93.952C132.07 94.5024 131.968 94.4256 132.621 93.7728C133.427 92.9792 134.17 92.6336 135.181 92.5952C135.642 92.5824 136.333 92.4672 136.717 92.3648C138.33 91.8912 140.403 91.8528 142.438 92.2368ZM145.446 93.4912C145.498 93.6192 145.459 93.6576 145.331 93.6064C145.139 93.5296 145.088 93.312 145.267 93.312C145.331 93.312 145.408 93.4016 145.446 93.4912ZM137.139 96.0512C138.33 97.2416 138.906 98.3424 138.982 99.584C139.021 100.198 138.97 100.557 138.803 100.928L138.586 101.44L138.483 100.262C138.394 99.3152 138.291 98.8928 137.946 98.1504C137.702 97.6384 137.395 97.1008 137.267 96.96C136.781 96.448 135.808 95.1168 135.68 94.784C135.462 94.208 135.539 94.1568 135.872 94.6432C136.051 94.8992 136.614 95.5392 137.139 96.0512ZM130.432 95.296C130.342 95.3984 130.202 95.488 130.112 95.488C129.843 95.488 129.114 95.8848 128.538 96.3456C127.642 97.0752 126.963 98.2656 125.197 102.208C123.994 104.883 123.942 104.973 123.328 105.638C122.79 106.227 122.074 106.637 121.114 106.88C118.618 107.52 108.352 107.098 104.192 106.176L103.36 105.997L104.192 106.061C107.917 106.33 109.491 106.394 113.92 106.394C119.206 106.406 120.41 106.317 121.69 105.83C122.778 105.434 123.2 104.806 125.133 100.89C126.976 97.1648 127.437 96.4608 128.614 95.7824C129.139 95.4624 130.061 95.1296 130.419 95.1168C130.56 95.104 130.56 95.1424 130.432 95.296ZM114.765 99.5456C114.598 100.826 114.598 101.082 114.752 101.453C114.944 101.926 114.842 102.016 114.534 101.658C114.214 101.299 114.163 100.813 114.304 99.5712C114.381 98.9184 114.419 98.368 114.394 98.3424C114.368 98.3168 114.086 98.5472 113.779 98.8416C113.472 99.1488 112.909 99.6352 112.55 99.9424C111.974 100.416 111.834 100.634 111.501 101.542C110.771 103.501 110.298 104.154 109.478 104.358C109.03 104.461 109.03 104.269 109.453 104.077C109.939 103.859 110.4 103.168 110.797 102.067C111.219 100.928 111.706 100.25 113.05 98.9568C114.048 97.9968 114.317 97.6128 114.765 96.576C114.97 96.1024 114.97 97.984 114.765 99.5456ZM133.235 97.4464C133.312 97.856 133.338 98.6624 133.274 99.52C133.197 100.8 133.158 100.928 132.928 100.928C132.467 100.928 132.403 100.365 132.736 99.0208C132.941 98.176 133.005 97.6256 132.954 97.216C132.838 96.4096 133.069 96.6016 133.235 97.4464ZM148.595 98.4576C148.928 99.84 148.966 102.08 148.672 103.232C148.301 104.678 147.776 105.574 146.714 106.611C145.664 107.648 144.666 108.224 143.296 108.608C142.208 108.902 139.648 109.005 138.202 108.8C136.589 108.57 136.294 108.429 137.408 108.429C138.278 108.416 138.33 108.403 138.79 107.93C139.853 106.842 139.878 105.088 138.854 103.642C138.714 103.45 138.662 103.296 138.739 103.296C138.906 103.296 139.456 103.872 139.878 104.499C140.493 105.408 140.275 107.354 139.469 108.019C139.085 108.339 139.264 108.429 140.25 108.403C142.323 108.352 144.397 107.712 145.587 106.752C146.086 106.342 146.56 105.83 146.56 105.69C146.56 105.574 146.534 105.574 146.458 105.677C146.406 105.754 146.01 105.958 145.562 106.112C144.896 106.355 144.602 106.394 143.821 106.33C142.362 106.227 141.491 105.702 140.352 104.256C140.083 103.898 139.622 103.373 139.341 103.066C139.059 102.771 138.867 102.528 138.931 102.528C139.11 102.528 140.096 103.283 140.979 104.115C141.466 104.576 142.157 105.101 142.515 105.306C143.078 105.613 143.309 105.664 144.192 105.651C145.05 105.651 145.318 105.6 145.856 105.306C146.56 104.934 147.264 104.333 147.661 103.744C147.93 103.347 148.224 102.387 148.224 101.875C148.224 101.632 148.186 101.645 147.93 102.029C147.123 103.232 145.498 103.59 143.68 102.976C142.938 102.72 142.566 102.451 143.168 102.592C143.987 102.784 145.434 102.81 146.01 102.643C146.829 102.413 147.61 101.645 147.955 100.698C148.262 99.84 148.326 99.1104 148.173 97.92C148.019 96.768 148.25 97.0624 148.595 98.4576ZM111.795 97.6896C111.744 97.7664 111.411 98.24 111.04 98.752C110.426 99.6224 110.093 100.365 109.453 102.4L109.197 103.232L109.274 102.336L109.338 101.44L109.069 101.786C108.928 101.965 108.8 102.157 108.8 102.208C108.8 102.374 107.84 103.155 107.494 103.283C107.021 103.45 107.046 103.309 107.558 102.925C107.776 102.758 108.134 102.387 108.339 102.093C109.261 100.8 110.067 99.5712 110.259 99.1744C110.528 98.5984 111.603 97.3824 111.757 97.4848C111.821 97.5232 111.834 97.6128 111.795 97.6896ZM110.336 97.6256C110.323 97.6896 109.926 98.1632 109.427 98.688C108.698 99.4688 108.39 99.9296 107.738 101.274C107.315 102.17 106.906 102.912 106.842 102.912C106.688 102.912 106.829 102.515 107.469 101.146C107.981 100.045 108.032 99.7504 107.622 100.122C107.328 100.403 106.445 100.954 106.022 101.12C105.126 101.466 105.408 101.133 106.778 100.224C107.571 99.6992 108.403 99.072 108.608 98.8288C108.992 98.3936 110.067 97.5488 110.246 97.536C110.298 97.536 110.336 97.5744 110.336 97.6256ZM131.584 98.8672C131.494 99.5328 131.469 100.288 131.507 100.531C131.558 100.787 131.546 100.992 131.494 100.992C130.893 100.979 130.803 99.9424 131.264 98.5728C131.456 97.9968 131.648 97.5616 131.686 97.5872C131.712 97.6256 131.674 98.2016 131.584 98.8672ZM127.603 101.696C127.437 102.374 127.514 103.501 127.808 104.627C128.064 105.587 128.013 105.741 127.578 105.28C126.912 104.55 126.797 102.822 127.347 101.581C127.68 100.826 127.808 100.877 127.603 101.696ZM132.48 102.016C132.48 102.182 132.045 102.4 131.725 102.4C131.315 102.4 131.405 102.208 131.878 102.054C132.442 101.875 132.48 101.875 132.48 102.016ZM128.448 103.027C128.41 103.219 128.435 103.654 128.525 103.987C128.704 104.691 128.589 104.883 128.243 104.461C127.949 104.102 127.936 103.706 128.179 103.104C128.41 102.566 128.563 102.515 128.448 103.027ZM126.298 105.344C127.373 106.291 129.331 107.123 131.571 107.597C132.57 107.802 132.762 107.776 132.442 107.456C132.122 107.149 131.981 106.458 132.109 105.843C132.16 105.536 132.211 105.242 132.224 105.178C132.224 105.126 132.275 105.088 132.339 105.088C132.403 105.088 132.518 105.562 132.608 106.138C132.826 107.674 132.954 107.853 133.85 107.968C134.874 108.083 135.181 108.173 135.091 108.301C135.053 108.365 134.566 108.416 134.016 108.416C132.288 108.416 129.024 107.597 127.36 106.752C126.259 106.189 125.338 105.062 125.12 104C125.056 103.68 125.094 103.718 125.363 104.205C125.542 104.538 125.965 105.05 126.298 105.344ZM134.195 106.419C134.515 107.046 134.746 107.61 134.707 107.661C134.592 107.866 134.131 107.456 133.862 106.906C133.632 106.406 133.363 105.05 133.542 105.216C133.581 105.254 133.875 105.792 134.195 106.419ZM189.952 119.296C191.949 119.603 195.341 120.55 195.533 120.858C195.635 121.011 195.61 123.52 195.507 125.146L195.418 126.336H194.368C193.472 126.336 193.306 126.298 193.242 126.106C193.203 125.99 193.05 125.453 192.896 124.928C192.192 122.419 192.333 122.688 191.654 122.522C189.658 122.035 187.725 121.907 186.432 122.176C182.746 122.944 180.902 126.067 180.954 131.456C180.966 133.875 181.197 135.091 181.901 136.55C182.784 138.394 184.218 139.571 186.189 140.083C187.635 140.454 190.042 140.301 192.09 139.712L192.768 139.507V136.794V134.067L191.629 133.786C191.014 133.632 190.413 133.504 190.31 133.504C190.195 133.504 190.067 133.414 190.029 133.299C189.888 132.928 189.952 131.75 190.118 131.61C190.259 131.494 192.717 131.418 197.248 131.392H198.592L198.63 132.378L198.669 133.363L197.734 133.632C197.222 133.773 196.659 133.939 196.48 133.99L196.16 134.08L196.122 137.69L196.096 141.299L194.88 141.76C192.115 142.835 190.157 143.168 187.162 143.066C184.832 142.989 184.038 142.835 182.656 142.195C178.867 140.429 177.011 136.883 177.024 131.52C177.05 125.632 179.789 121.242 184.397 119.744C185.958 119.232 188.314 119.053 189.952 119.296ZM50.0736 119.68C54.0288 120.013 56.064 121.933 56.064 125.325C56.064 127.194 55.744 128.077 54.7456 129.088C54.1824 129.638 53.696 129.984 53.0944 130.24C52.608 130.445 52.224 130.65 52.224 130.701C52.224 130.739 52.4672 130.854 52.7744 130.944C54.2464 131.379 55.8208 132.557 56.3712 133.632C56.9728 134.797 57.1008 136.243 56.768 137.882C56.256 140.288 54.9888 141.517 52.032 142.438C51.5072 142.592 50.3168 142.643 45.2096 142.682L39.0272 142.733L39.0656 141.734L39.104 140.736L39.936 140.531C40.3968 140.416 40.9984 140.275 41.28 140.211L41.792 140.096L41.8304 131.226L41.856 122.368L41.5104 122.227C41.3184 122.15 40.7808 122.022 40.32 121.92C38.9888 121.638 39.04 121.69 39.04 120.691C39.04 120.205 39.0528 119.795 39.0784 119.782C39.1168 119.757 44.7104 119.603 46.848 119.578C47.7952 119.565 49.2544 119.616 50.0736 119.68ZM103.782 120.704C103.744 121.766 103.923 121.613 102.208 121.984C101.786 122.074 101.338 122.202 101.21 122.266C101.005 122.368 100.992 122.893 101.018 131.238L101.056 140.096L104.256 140.134C106.022 140.147 107.533 140.109 107.635 140.045C107.738 139.981 107.93 139.251 108.109 138.176C108.275 137.216 108.442 136.371 108.48 136.307C108.531 136.243 109.043 136.192 109.632 136.192C110.643 136.192 110.72 136.205 110.784 136.474C110.822 136.64 110.835 138.086 110.822 139.712L110.784 142.656H102.72H94.656L94.6432 141.798C94.6432 141.325 94.6688 140.877 94.7072 140.813C94.7456 140.749 95.3856 140.57 96.128 140.39L97.472 140.083V131.187V122.304L96.1408 121.971C95.1168 121.728 94.784 121.587 94.7072 121.395C94.5536 120.998 94.5792 119.962 94.7584 119.846C94.9376 119.731 103.565 119.578 103.718 119.693C103.77 119.731 103.808 120.192 103.782 120.704ZM131.136 119.693C135.117 120.141 137.984 122.381 139.251 126.016C139.725 127.386 139.904 128.717 139.904 130.816C139.904 133.683 139.597 135.142 138.547 137.216C137.165 139.981 135.13 141.555 131.776 142.477C131.277 142.618 129.818 142.656 125.069 142.656H119.002L119.014 141.786C119.014 141.299 119.053 140.864 119.104 140.826C119.142 140.774 119.77 140.582 120.486 140.403L121.792 140.07L121.83 131.174L121.856 122.291L120.87 122.061C120.32 121.933 119.68 121.779 119.462 121.702L119.04 121.574V120.691C119.04 120.205 119.053 119.795 119.078 119.795C119.091 119.782 120.141 119.731 121.408 119.693C125.171 119.565 130.035 119.565 131.136 119.693ZM166.208 122.368V125.12H165.133H164.058L163.648 123.712L163.238 122.304L159.693 122.266L156.16 122.24L156.186 125.722L156.224 129.216H159.974H163.712V130.522V131.84L159.974 131.866L156.224 131.904V136V140.096L159.885 140.122C162.662 140.147 163.584 140.122 163.686 139.994C163.75 139.917 163.93 139.174 164.083 138.368C164.237 137.562 164.403 136.858 164.467 136.794C164.518 136.742 165.018 136.704 165.581 136.73L166.592 136.768L166.63 139.75L166.656 142.72L158.246 142.694L149.824 142.656V141.696V140.736L151.168 140.429C151.91 140.262 152.55 140.058 152.602 139.981C152.717 139.814 152.742 122.739 152.627 122.445C152.576 122.33 152.115 122.15 151.322 121.971C150.63 121.818 150.003 121.638 149.926 121.562C149.786 121.459 149.67 119.872 149.798 119.782C149.901 119.706 156.787 119.603 161.088 119.603L166.208 119.616V122.368ZM216.934 120.602L216.973 121.574L216.55 121.702C216.32 121.779 215.68 121.933 215.13 122.048L214.144 122.253L214.17 131.174L214.208 140.083L215.552 140.416L216.896 140.736L216.934 141.734L216.973 142.72L212.39 142.694L207.808 142.656L207.77 141.824C207.757 141.363 207.782 140.928 207.834 140.851C207.898 140.774 208.538 140.57 209.28 140.403L210.624 140.083V131.2V122.317L210.048 122.138C209.728 122.048 209.152 121.907 208.768 121.843C208.384 121.766 207.987 121.651 207.91 121.574C207.77 121.459 207.654 119.859 207.782 119.795C207.821 119.77 215.987 119.616 216.512 119.629L216.896 119.642L216.934 120.602ZM77.888 119.834C78.1952 120.717 81.472 129.882 81.6512 130.368C81.792 130.714 82.3936 132.416 83.008 134.144C83.6224 135.872 84.1984 137.485 84.288 137.728C84.3904 137.971 84.6208 138.611 84.8128 139.149L85.1584 140.122L86.4896 140.416C87.9872 140.749 87.9744 140.749 87.9104 141.965L87.872 142.656H83.072H78.272V141.696V140.749L79.232 140.518C79.7568 140.403 80.3456 140.301 80.5248 140.288C80.704 140.288 80.9472 140.211 81.0752 140.122C81.28 139.968 81.2544 139.853 80.6912 138.24C80.3584 137.293 80.0256 136.474 79.9488 136.422C79.872 136.371 77.9904 136.32 75.776 136.32C73.5616 136.32 71.68 136.371 71.6032 136.422C71.5264 136.474 71.3472 136.858 71.1936 137.28C71.0528 137.702 70.784 138.483 70.592 139.008C70.272 139.904 70.2592 139.968 70.4768 140.122C70.6048 140.211 70.8864 140.288 71.0912 140.301C71.3088 140.301 71.8976 140.403 72.384 140.531L73.28 140.749L73.3184 141.734L73.3568 142.72H68.8H64.256V141.722V140.723L65.5616 140.403L66.88 140.096L68.0192 137.024C68.6464 135.334 70.208 131.123 71.488 127.68C72.768 124.224 73.9584 121.05 74.112 120.614C74.2784 120.166 74.4832 119.795 74.6112 119.77C74.7264 119.731 75.4944 119.706 76.3264 119.693C77.4272 119.68 77.8496 119.718 77.888 119.834ZM59.264 151.424C59.8656 151.846 60.0704 152.358 60.0064 153.267C59.968 153.843 59.8784 154.176 59.648 154.496L59.3408 154.918L59.8144 155.315C60.3776 155.802 60.544 156.211 60.544 157.133C60.544 157.939 60.3392 158.426 59.776 158.886C59.1872 159.386 58.624 159.488 56.2944 159.488H54.144V155.264V151.053L55.9104 151.014C58.0096 150.963 58.752 151.066 59.264 151.424ZM127.706 153.51C128.269 153.805 128.307 153.92 127.962 154.304L127.667 154.65L127.13 154.368C126.502 154.035 125.67 154.061 125.107 154.432C124.557 154.79 124.237 155.686 124.339 156.582C124.48 157.926 125.12 158.643 126.182 158.643C126.541 158.643 126.95 158.541 127.181 158.413C127.552 158.182 127.59 158.182 127.91 158.4C128.333 158.682 128.346 158.758 127.923 159.091C127.091 159.744 125.517 159.782 124.467 159.168C123.597 158.656 123.264 157.875 123.264 156.352C123.277 154.394 123.904 153.523 125.568 153.229C126.182 153.114 127.219 153.254 127.706 153.51ZM68.5184 153.331C68.5696 153.344 68.608 154.726 68.608 156.416V159.488H68.032H67.456V156.864V154.227L66.1504 154.266L64.832 154.304L64.8064 156.864L64.7808 159.424H64.2304H63.68L63.6416 156.39L63.616 153.344L65.6896 153.318C67.5072 153.28 68.096 153.293 68.5184 153.331ZM73.3952 155.226C74.3552 157.786 74.5856 158.336 74.7264 158.336C74.7904 158.336 74.9312 158.067 75.0464 157.722C75.6608 155.866 76.5696 153.395 76.672 153.293C76.7488 153.216 76.9792 153.229 77.2864 153.318L77.7856 153.472L76.352 157.35C74.7392 161.69 74.5344 162.048 73.6128 162.048C72.8832 162.048 72.704 161.946 72.704 161.536C72.704 161.165 72.896 161.024 73.408 161.024C73.7664 161.024 73.92 160.845 74.176 160.115C74.3808 159.565 74.3808 159.552 74.048 159.322C73.8688 159.181 73.6384 158.925 73.5488 158.733C73.3696 158.4 71.552 153.638 71.552 153.523C71.552 153.434 72.1024 153.229 72.384 153.229C72.6016 153.216 72.7552 153.536 73.3952 155.226ZM84.5568 153.421C85.2608 153.754 85.3504 153.946 84.9664 154.317L84.6464 154.65L84.1472 154.381C82.7008 153.6 81.3312 154.573 81.3568 156.365C81.3696 157.44 81.6896 158.067 82.432 158.438C83.0592 158.758 83.52 158.746 84.3008 158.362C84.7232 158.17 84.7488 158.17 85.0176 158.426C85.2608 158.669 85.2736 158.733 85.1072 158.925C84.8128 159.283 83.9424 159.616 83.264 159.616C82.2784 159.616 81.664 159.386 81.0752 158.797C80.7552 158.49 80.4864 158.054 80.3968 157.76C80.2176 157.107 80.2176 155.61 80.3968 154.97C80.5632 154.368 81.3312 153.574 81.92 153.382C82.6112 153.165 84.0576 153.19 84.5568 153.421ZM92.7616 153.344C92.864 153.344 92.864 153.459 92.7744 153.792C92.6336 154.227 92.6336 154.227 91.7888 154.266L90.944 154.304L90.9184 156.672C90.9056 157.978 90.88 159.142 90.88 159.27C90.88 159.462 90.7904 159.501 90.3424 159.462L89.792 159.424L89.7536 156.826L89.728 154.24H88.768H87.808V153.818C87.808 153.574 87.8336 153.357 87.8592 153.331C87.8976 153.293 91.6224 153.293 92.7616 153.344ZM96.7936 155.482L96.832 157.76L98.176 155.558L99.52 153.357L100.198 153.344H100.864L100.838 156.378L100.8 159.424L100.262 159.462C99.8016 159.501 99.712 159.462 99.712 159.27C99.6992 159.142 99.6992 158.182 99.712 157.146C99.7248 155.904 99.6736 155.251 99.5968 155.29C99.52 155.302 98.8928 156.25 98.2016 157.376L96.9344 159.424L96.2688 159.462L95.616 159.501L95.6416 156.454L95.68 153.421L96 153.331C96.7936 153.114 96.7552 152.998 96.7936 155.482ZM113.766 153.574C114.163 153.805 114.56 154.483 114.56 154.944C114.56 155.149 114.458 155.507 114.317 155.725C114.086 156.109 114.086 156.109 114.381 156.454C115.059 157.248 114.893 158.49 114.022 159.078C113.51 159.411 113.408 159.424 111.59 159.462L109.696 159.514V156.442V153.357L110.118 153.318C110.95 153.242 113.472 153.421 113.766 153.574ZM135.194 153.485C136.077 153.83 136.435 154.893 135.962 155.699C135.731 156.096 135.718 156.16 135.885 156.301C136.435 156.749 136.602 157.786 136.256 158.464C136.154 158.656 135.859 158.963 135.59 159.13C135.142 159.398 134.938 159.424 133.222 159.462L131.328 159.514V156.442V153.357L131.622 153.318C132.211 153.242 134.861 153.357 135.194 153.485ZM143.898 153.664C144.602 154.163 144.998 154.893 145.101 155.853C145.331 158.054 144.128 159.603 142.195 159.616C141.171 159.616 140.237 159.117 139.712 158.285C139.366 157.709 139.328 157.568 139.328 156.493C139.328 155.072 139.405 154.765 139.942 154.163C140.57 153.434 141.197 153.203 142.362 153.242C143.206 153.28 143.411 153.331 143.898 153.664ZM149.376 154.483C149.376 155.251 149.427 155.789 149.517 155.84C149.594 155.891 149.837 155.891 150.067 155.853C150.451 155.776 150.502 155.712 150.579 155.251C150.669 154.65 151.078 153.997 151.616 153.574C152.166 153.139 153.728 153.075 154.47 153.459C155.43 153.946 155.776 154.739 155.776 156.48C155.776 157.466 155.725 157.747 155.456 158.285C155.034 159.13 154.458 159.501 153.434 159.578C152.794 159.629 152.499 159.59 152.038 159.386C151.206 159.014 150.528 158.003 150.528 157.107C150.528 156.826 150.477 156.8 149.952 156.8H149.389L149.35 158.106L149.312 159.424L148.762 159.462L148.224 159.501L148.25 156.467L148.288 153.421L148.608 153.331C149.389 153.114 149.376 153.101 149.376 154.483ZM166.822 154.637C167.296 155.341 167.744 155.878 167.808 155.84C167.885 155.789 167.936 155.213 167.936 154.547V153.331L168.486 153.37L169.024 153.408L169.088 154.688L169.152 155.968L169.779 155.072C171.034 153.293 170.944 153.37 171.584 153.318C171.917 153.293 172.198 153.306 172.224 153.331C172.262 153.357 171.853 154.01 171.328 154.778C170.803 155.546 170.368 156.224 170.368 156.301C170.368 156.608 171.725 158.477 172.058 158.63C172.365 158.758 172.416 158.848 172.39 159.168C172.352 159.514 172.301 159.552 171.891 159.59C171.251 159.642 170.854 159.27 169.984 157.837C169.6 157.197 169.242 156.672 169.19 156.672C169.139 156.672 169.075 157.286 169.062 158.042L169.024 159.424L168.486 159.462L167.936 159.501V158.093C167.936 157.312 167.885 156.672 167.821 156.672C167.77 156.672 167.347 157.248 166.899 157.952C166.054 159.27 165.581 159.68 164.992 159.603C164.749 159.565 164.659 159.462 164.608 159.168C164.557 158.848 164.595 158.758 164.915 158.592C165.12 158.477 165.568 157.952 165.965 157.35L166.63 156.314L165.683 154.906C165.158 154.138 164.736 153.459 164.736 153.395C164.736 153.331 165.005 153.306 165.338 153.331L165.952 153.37L166.822 154.637ZM176.794 155.456L176.832 157.709L178.163 155.533L179.494 153.37L180.058 153.318C180.378 153.293 180.646 153.306 180.685 153.331C180.71 153.357 180.736 154.765 180.736 156.442V159.488H180.16H179.584L179.558 157.338L179.52 155.2L178.189 157.338L176.858 159.488H176.23H175.616L175.642 156.454L175.68 153.421L176 153.331C176.794 153.114 176.755 153.011 176.794 155.456ZM187.136 153.446C187.738 153.766 188.058 154.406 187.994 155.11C187.955 155.418 187.84 155.763 187.712 155.904C187.494 156.134 187.507 156.173 187.827 156.544C188.237 157.043 188.339 157.427 188.224 158.042C188.032 159.066 187.238 159.616 185.946 159.616C185.459 159.616 185.062 159.514 184.563 159.258C183.795 158.874 183.718 158.669 184.205 158.374C184.525 158.182 184.589 158.182 185.037 158.4C185.664 158.707 186.534 158.707 186.88 158.4C187.2 158.118 187.226 157.286 186.931 157.043C186.829 156.954 186.419 156.851 186.035 156.826L185.331 156.762L185.37 156.301C185.408 155.891 185.446 155.84 185.792 155.814C186.483 155.763 186.765 155.648 186.906 155.328C187.328 154.381 186.048 153.715 185.011 154.355C184.614 154.598 184.602 154.598 184.218 154.342C183.731 154.035 183.795 153.83 184.486 153.485C185.19 153.126 186.509 153.114 187.136 153.446ZM192.435 154.496L192.448 155.712H193.792H195.136L195.174 154.586C195.213 153.51 195.226 153.459 195.533 153.344C195.712 153.267 195.968 153.216 196.109 153.216C196.339 153.216 196.352 153.331 196.352 156.365V159.501L195.814 159.462L195.264 159.424L195.226 158.042L195.187 156.672H193.792H192.384V158.093V159.501L191.846 159.462L191.296 159.424L191.258 156.454L191.232 153.498L191.578 153.357C192.346 153.075 192.41 153.152 192.435 154.496ZM200.858 154.458L200.896 155.712L202.304 155.776C203.917 155.853 204.314 156.019 204.621 156.736C205.005 157.67 204.723 158.682 203.942 159.194C203.661 159.386 203.264 159.437 201.638 159.462L199.68 159.514V156.506V153.498L200.038 153.37C200.806 153.088 200.819 153.101 200.858 154.458ZM134.349 164.48C135.053 164.787 135.142 164.954 134.758 165.325L134.451 165.632L133.952 165.363C133.325 165.043 132.378 165.082 131.866 165.466C131.328 165.862 131.136 166.362 131.136 167.36C131.136 168.486 131.418 169.037 132.224 169.446C132.838 169.754 133.222 169.741 133.939 169.395C134.451 169.152 134.605 169.165 134.848 169.498C135.04 169.779 135.027 169.805 134.72 170.074C133.978 170.726 132.48 170.816 131.443 170.266C130.893 169.984 130.688 169.779 130.406 169.229C130.086 168.627 130.048 168.41 130.048 167.411C130.048 166.118 130.253 165.453 130.803 164.954C131.354 164.48 131.699 164.326 132.48 164.224C133.286 164.122 133.619 164.173 134.349 164.48ZM105.856 164.493C105.856 164.621 106.906 167.13 107.187 167.642C107.341 167.949 107.366 167.898 107.994 166.566C108.339 165.811 108.71 164.992 108.813 164.762C108.992 164.365 109.005 164.352 109.786 164.352H110.592V167.424V170.496H110.016H109.44L109.414 168.282C109.376 165.773 109.478 165.773 108.39 168.256C107.827 169.51 107.814 169.536 107.354 169.574C106.918 169.613 106.88 169.587 106.586 168.998C106.406 168.666 106.061 167.885 105.792 167.258C105.523 166.643 105.267 166.144 105.203 166.144C105.139 166.144 105.088 167.13 105.088 168.333V170.509L104.55 170.47L104 170.432L103.962 167.437C103.949 165.709 103.987 164.403 104.051 164.365C104.23 164.25 105.856 164.365 105.856 164.493ZM117.939 164.518C118.835 165.018 118.963 165.402 119.053 167.808C119.091 168.973 119.181 170.048 119.232 170.202C119.322 170.483 119.296 170.496 118.733 170.496C118.221 170.496 118.118 170.458 118.016 170.189L117.901 169.882L117.248 170.214C115.891 170.88 114.611 170.701 113.971 169.741C113.677 169.293 113.638 169.126 113.69 168.563C113.741 168.026 113.843 167.834 114.227 167.45L114.688 166.976L116.288 166.938L117.888 166.886V166.451C117.888 165.862 117.709 165.555 117.222 165.299C116.749 165.056 115.802 165.12 115.174 165.44C114.65 165.696 114.65 165.696 114.394 165.261C114.214 164.954 114.202 164.864 114.355 164.749C114.714 164.442 115.558 164.237 116.48 164.237C117.248 164.224 117.542 164.288 117.939 164.518ZM126.413 164.416C126.656 164.518 126.938 164.685 127.04 164.774C127.194 164.928 127.168 165.005 126.861 165.299L126.515 165.632L126.016 165.363C125.402 165.056 124.557 165.094 124.045 165.466C122.931 166.285 123.021 168.819 124.211 169.434C124.723 169.702 125.709 169.677 126.208 169.382C126.592 169.165 126.592 169.165 126.925 169.498L127.27 169.83L126.72 170.189C126.336 170.445 125.978 170.56 125.453 170.598C124.058 170.701 123.021 170.189 122.496 169.152C122.227 168.602 122.176 168.333 122.189 167.296C122.189 165.965 122.317 165.581 122.97 164.966C123.162 164.787 123.533 164.544 123.776 164.442C124.365 164.186 125.837 164.173 126.413 164.416ZM142.131 164.518C143.04 165.018 143.155 165.389 143.245 167.872C143.283 169.062 143.36 170.15 143.411 170.266C143.501 170.47 143.437 170.496 142.95 170.496C142.464 170.496 142.349 170.445 142.234 170.176L142.093 169.869L141.44 170.202C140.122 170.88 138.816 170.701 138.163 169.741C137.613 168.934 137.805 167.949 138.624 167.245C139.008 166.925 139.098 166.912 140.557 166.912H142.08V166.413C142.08 166.054 141.99 165.786 141.773 165.542C141.491 165.222 141.389 165.184 140.646 165.184C140.134 165.197 139.674 165.274 139.392 165.414L138.944 165.645L138.662 165.299C138.33 164.877 138.368 164.787 139.059 164.48C139.853 164.122 141.478 164.134 142.131 164.518ZM147.853 164.339C147.891 164.352 148.314 164.928 148.787 165.632C149.274 166.336 149.709 166.874 149.773 166.835C149.837 166.797 149.888 166.234 149.888 165.581V164.39L150.362 164.314C150.618 164.262 150.874 164.262 150.938 164.301C150.989 164.339 151.04 164.941 151.04 165.645C151.04 166.336 151.078 166.912 151.142 166.912C151.194 166.912 151.603 166.362 152.064 165.683C152.512 165.005 152.947 164.429 153.037 164.39C153.114 164.365 153.421 164.352 153.702 164.378L154.214 164.416L153.267 165.824C152.755 166.592 152.32 167.27 152.32 167.322C152.32 167.386 152.627 167.885 152.986 168.448C153.446 169.139 153.779 169.51 154.022 169.6C154.33 169.702 154.381 169.779 154.342 170.138C154.304 170.522 154.266 170.56 153.843 170.598C153.203 170.65 152.806 170.278 151.936 168.845C151.552 168.205 151.194 167.68 151.142 167.68C151.078 167.68 151.04 168.307 151.04 169.088V170.496H150.464H149.888V169.088C149.888 168.307 149.85 167.68 149.798 167.68C149.734 167.68 149.325 168.256 148.877 168.96C147.955 170.368 147.648 170.662 147.034 170.598C146.675 170.56 146.624 170.509 146.586 170.138C146.547 169.805 146.598 169.702 146.854 169.613C147.046 169.536 147.469 169.037 147.904 168.397L148.621 167.309L147.648 165.888C147.11 165.107 146.701 164.429 146.739 164.365C146.79 164.288 147.187 164.275 147.853 164.339ZM136.102 179.098C136.154 179.251 136.154 179.52 136.115 179.674L136.038 179.968H129.152H122.266L122.189 179.635C122.138 179.456 122.138 179.2 122.176 179.059C122.253 178.829 122.47 178.816 129.152 178.816H136.038L136.102 179.098Z" fill="#987E56"/>
<path d="M45.2737 122.33C45.2225 122.368 45.1841 123.994 45.1841 125.926V129.434L47.3345 129.382C49.7793 129.318 50.5729 129.101 51.4817 128.282C52.2753 127.565 52.5313 126.963 52.5313 125.76C52.5441 124.902 52.4929 124.634 52.2113 124.096C51.7761 123.226 50.7777 122.534 49.7281 122.368C48.8705 122.227 45.4017 122.189 45.2737 122.33Z" fill="#987E56"/>
<path d="M45.2992 132.045C45.2352 132.134 45.1968 133.85 45.2096 136.141L45.248 140.096L47.296 140.083C50.3552 140.07 51.3664 139.827 52.3904 138.893C53.1328 138.214 53.312 137.677 53.312 136.128C53.312 134.477 53.12 133.99 52.16 133.146C51.2128 132.314 50.3424 132.096 47.6672 131.994C46.0672 131.93 45.3888 131.942 45.2992 132.045Z" fill="#987E56"/>
<path d="M125.414 122.317C125.35 122.368 125.312 126.4 125.312 131.29V140.16L127.718 140.109C130.406 140.058 131.149 139.93 132.365 139.328C133.414 138.79 134.554 137.6 135.053 136.486C135.898 134.643 136.269 132.045 136.051 129.6C135.693 125.709 134.323 123.558 131.584 122.611C130.854 122.355 130.432 122.317 128.128 122.266C126.682 122.24 125.466 122.253 125.414 122.317Z" fill="#987E56"/>
<path d="M75.7248 124.301C75.6608 124.467 75.0592 126.157 73.92 129.408C72.8192 132.518 72.4736 133.581 72.5376 133.658C72.6144 133.798 78.9504 133.786 79.0272 133.645C79.0656 133.581 78.8736 132.851 78.5792 132.019C78.2976 131.174 77.6064 129.114 77.0304 127.424C76.4672 125.734 75.9552 124.301 75.8912 124.237C75.8272 124.16 75.7632 124.186 75.7248 124.301Z" fill="#987E56"/>
<path d="M55.3216 153.306L55.36 154.56H56.6016C57.6512 154.56 57.8944 154.522 58.2016 154.291C58.7904 153.843 58.9568 153.459 58.7776 152.87C58.5728 152.179 58.2528 152.064 56.6272 152.064H55.2832L55.3216 153.306Z" fill="#987E56"/>
<path d="M55.296 156.979C55.296 158.515 55.2576 158.464 56.5504 158.451C58.7264 158.426 59.264 158.157 59.264 157.094C59.264 155.904 58.8288 155.648 56.768 155.648H55.296V156.979Z" fill="#987E56"/>
<path d="M110.874 154.97L110.912 155.712H111.885C112.678 155.712 112.922 155.661 113.139 155.469C113.472 155.162 113.485 154.829 113.152 154.496C112.934 154.278 112.73 154.24 111.872 154.24H110.835L110.874 154.97Z" fill="#987E56"/>
<path d="M110.874 157.594L110.912 158.528H111.962C112.896 158.515 113.05 158.49 113.344 158.208C113.766 157.811 113.766 157.286 113.331 156.941C113.05 156.71 112.806 156.672 111.91 156.672H110.835L110.874 157.594Z" fill="#987E56"/>
<path d="M132.506 154.97L132.544 155.712H133.517C134.605 155.712 135.04 155.482 135.04 154.931C135.04 154.445 134.592 154.24 133.466 154.24H132.467L132.506 154.97Z" fill="#987E56"/>
<path d="M132.506 157.594L132.544 158.528L133.12 158.566C134.912 158.694 135.872 157.875 134.976 156.992C134.694 156.698 134.566 156.672 133.568 156.672H132.467L132.506 157.594Z" fill="#987E56"/>
<path d="M141.363 154.291C140.723 154.573 140.365 155.29 140.365 156.301C140.365 157.722 140.851 158.477 141.888 158.643C142.592 158.758 143.462 158.323 143.77 157.696C144.064 157.12 144.077 155.661 143.808 155.085C143.424 154.278 142.259 153.907 141.363 154.291Z" fill="#987E56"/>
<path d="M152.448 154.278C152.282 154.368 152 154.637 151.834 154.88C151.565 155.29 151.539 155.443 151.578 156.506C151.629 157.875 151.834 158.272 152.64 158.554C153.267 158.771 153.92 158.618 154.368 158.144C154.637 157.862 154.688 157.67 154.726 156.634C154.79 155.174 154.611 154.637 153.946 154.33C153.421 154.074 152.883 154.061 152.448 154.278Z" fill="#987E56"/>
<path d="M200.858 157.594L200.896 158.528L201.792 158.566C203.226 158.618 203.827 158.182 203.597 157.261C203.494 156.838 202.995 156.672 201.843 156.672H200.819L200.858 157.594Z" fill="#987E56"/>
<path d="M115.072 168.09C114.739 168.448 114.739 169.011 115.072 169.344C115.482 169.754 115.968 169.728 117.094 169.216C117.875 168.845 117.888 168.832 117.888 168.333V167.808H116.608C115.469 167.808 115.315 167.834 115.072 168.09Z" fill="#987E56"/>
<path d="M139.52 167.898C138.982 168.115 138.842 168.922 139.264 169.344C139.622 169.702 140.275 169.664 141.248 169.229C142.067 168.845 142.08 168.845 142.08 168.333V167.808L140.902 167.821C140.25 167.821 139.622 167.859 139.52 167.898Z" fill="#987E56"/>
</g>
<defs>
<clipPath id="clip0_0_1">
<rect width="256" height="256" fill="white"/>
</clipPath>
</defs>
</svg>
